<svg id="SvgjsSvg1001" width="288" height="288" xmlns="http://www.w3.org/2000/svg" version="1.1" xmlns:xlink="http://www.w3.org/1999/xlink" xmlns:svgjs="http://svgjs.com/svgjs"><defs id="SvgjsDefs1002"></defs><g id="SvgjsG1008" transform="matrix(1,0,0,1,0,0)"><svg xmlns="http://www.w3.org/2000/svg" width="288" height="288"  version="1.0" viewBox="0 0 2262 1571"><g transform="matrix(.1 0 0 -.1 0 1571)" fill="#ff0000" class="color000 svgShape"><path stroke="#ffffff" d="M10861 15489 c-2526 -115 -4898 -1192 -6647 -3018 l-138 -144 52 -18c58 -20 90 -40 172 -109 30 -25 87 -70 125 -100 39 -29 131 -104 206 -167 76
-62 141 -113 146 -113 6 0 65 60 132 134 409 450 743 676 1000 676 144 0 308
-77 393 -184 22 -28 64 -98 93 -156 29 -58 79 -141 111 -185 133 -183 163
-234 193 -330 36 -110 40 -193 15 -311 -18 -88 -94 -314 -159 -470 -24 -59
-42 -110 -40 -112 2 -3 93 7 202 22 306 40 554 66 714 73 133 5 150 4 212 -16
72 -24 117 -56 144 -101 9 -15 21 -27 27 -25 6 2 182 22 391 45 209 22 390 43
401 45 l22 5 -24 57 c-13 32 -24 63 -24 69 0 6 -42 47 -92 90 -175 150 -181
154 -226 154 -58 0 -147 36 -187 75 -35 35 -75 126 -75 173 -1 20 -14 37 -53
69 -52 41 -53 41 -101 31 -40 -8 -60 -7 -109 8 -82 25 -130 62 -161 126 -28
57 -33 94 -22 143 7 29 3 34 -99 120 -167 141 -147 129 -199 116 -65 -16 -114
-14 -183 10 -79 26 -107 55 -134 136 -21 65 -21 67 -4 122 l17 55 -48 43 c-27
24 -67 53 -89 66 -45 25 -85 92 -85 142 0 39 49 141 87 182 l30 32 -141 114
c-78 63 -171 140 -206 171 -63 55 -66 57 -110 51 -106 -14 -228 67 -262 175
-16 50 -16 63 -3 140 28 171 77 254 170 289 71 27 146 27 295 1 153 -26 168
-26 370 16 225 47 310 45 475 -10 116 -39 156 -59 360 -178 157 -91 321 -185
730 -415 171 -97 517 -294 770 -438 253 -144 589 -335 747 -424 158 -88 406
-230 550 -314 145 -85 403 -232 573 -327 171 -95 342 -191 380 -213 84 -49
167 -129 186 -180 9 -25 22 -39 42 -47 17 -5 31 -10 32 -10 2 0 15 25 29 55
32 64 99 127 154 143 50 15 112 -4 159 -50 l32 -31 54 49 c30 28 70 55 89 60
69 22 167 -38 210 -127 l15 -30 24 35 c29 43 88 81 156 103 49 16 56 15 114
-2 67 -21 179 -87 179 -106 0 -15 83 -8 404 31 131 17 244 30 251 30 6 0 56
53 110 118 381 450 706 758 949 896 108 62 253 108 341 110 134 2 293 -74 388
-184 38 -44 98 -141 137 -220 12 -25 60 -102 107 -171 l85 -126 422 -6 c511
-7 723 -27 977 -92 212 -54 353 -116 504 -219 50 -34 113 -70 140 -81 77 -28
122 -63 156 -118 52 -84 61 -120 43 -169 l-14 -41 34 35 c19 20 61 49 92 64
52 25 60 27 101 16 76 -21 121 -67 161 -165 31 -76 31 -132 2 -212 -89 -238
-397 -481 -820 -648 -538 -211 -1237 -370 -2120 -482 -113 -14 -214 -28 -226
-30 -18 -4 -32 -40 -92 -232 -61 -196 -127 -422 -145 -500 -5 -23 -4 -23 99
-23 183 0 369 -55 512 -150 l75 -50 51 48 c226 212 567 380 891 438 104 18
275 18 367 -1 315 -66 548 -211 639 -399 28 -55 21 -64 99 130 95 237 175 343
328 434 92 54 286 117 389 126 l82 7 -61 41 c-104 69 -172 177 -223 351 -33
111 -30 169 16 311 64 202 161 344 309 453 104 78 193 122 345 171 107 35 148
44 230 48 95 4 106 3 210 -32 223 -75 339 -191 406 -409 28 -88 31 -109 27
-191 -9 -181 -109 -404 -244 -542 -132 -135 -360 -245 -591 -285 l-71 -12 59
-39 c69 -46 141 -124 173 -188 41 -81 70 -182 70 -245 0 -72 -54 -239 -113
-352 -21 -40 -37 -73 -36 -73 2 0 54 60 116 132 206 240 539 569 759 748 71
59 166 129 262 194 l77 53 -133 269 c-202 408 -387 732 -622 1084 -1327 1997
-3341 3448 -5640 4064 -965 259 -2000 371 -3003 325z" fill="#ff0000" class="color000 svgShape"></path><path stroke="#ffffff" d="M7070 13716 c-41 -8 -117 -24 -167 -35 -116 -26 -180 -26 -339 0 -69
11 -143 19 -163 17 -45 -4 -57 -26 -67 -127 l-7 -74 77 7 c88 8 90 7 211 -99
39 -33 106 -90 150 -125 44 -36 160 -131 257 -212 l178 -148 72 6 73 6 109
-84 c60 -45 126 -98 145 -115 l36 -32 -30 -1 c-34 0 -42 5 -173 107 -51 40
-102 73 -113 73 -30 0 -300 -70 -330 -86 -15 -7 -29 -19 -32 -26 -3 -8 53 -62
139 -136 79 -67 144 -126 144 -131 0 -5 -22 -28 -50 -51 -59 -50 -69 -90 -22
-90 49 0 140 28 346 109 214 83 296 108 318 94 7 -4 103 -75 212 -157 136
-102 195 -151 187 -159 -11 -11 -63 6 -82 29 -30 36 -329 244 -350 244 -73 -1
-271 -68 -354 -121 l-49 -31 50 -44 c27 -24 112 -98 189 -163 77 -65 155 -134
172 -153 l33 -34 -40 -38 c-22 -21 -40 -46 -40 -57 0 -16 7 -19 46 -19 61 0
186 43 426 146 108 46 205 84 215 84 10 0 30 -8 45 -18 58 -38 218 -164 218
-172 0 -29 -41 -10 -144 65 -62 47 -118 85 -123 85 -17 0 -325 -125 -391 -159
-34 -17 -60 -36 -57 -41 8 -14 201 -181 236 -205 36 -25 36 -41 3 -76 -16 -17
-24 -34 -21 -43 19 -48 220 14 520 161 82 40 155 73 162 73 22 0 385 -275 385
-291 0 -28 -60 6 -212 120 l-172 129 -55 -25 c-31 -13 -143 -63 -250 -110
l-194 -87 45 -40 c24 -23 117 -103 207 -180 124 -105 161 -142 155 -155 -3 -9
-9 -27 -12 -40 -5 -23 -4 -24 45 -17 42 5 54 3 77 -15 l27 -21 57 46 c52 43
292 168 444 232 l61 25 20 -20 21 -20 -25 -9 c-68 -27 -97 -41 -128 -67 -30
-26 -33 -33 -28 -69 3 -25 34 -96 81 -182 42 -77 76 -145 76 -151 0 -6 -37
-13 -82 -17 -183 -16 -622 -61 -1218 -127 -630 -69 -1578 -195 -2026 -270
l-72 -12 -36 -89 c-21 -50 -35 -92 -33 -95 3 -2 162 21 353 51 192 30 473 73
624 96 151 22 293 43 314 46 22 4 85 23 141 44 172 65 324 85 435 59 59 -14
53 -15 365 20 257 29 796 81 835 81 12 0 30 -20 52 -57 68 -117 215 -398 211
-405 -2 -3 -56 -19 -121 -34 -147 -34 -155 -38 -109 -53 23 -8 83 -11 163 -9
l127 3 18 -35 c10 -20 21 -50 25 -67 6 -31 5 -32 -37 -37 -24 -3 -127 -10
-229 -16 -177 -11 -538 -49 -833 -87 l-137 -17 -24 -52 c-75 -164 -238 -320
-405 -390 l-56 -23 275 -1 c667 0 1631 74 2396 185 186 27 234 15 107 -26 -53
-18 -249 -57 -365 -74 -45 -6 -137 -58 -145 -81 -2 -5 25 -24 60 -41 137 -71
246 -190 283 -308 l17 -53 52 24 c29 12 55 21 58 18 7 -7 -7 -65 -64 -250 -80
-263 -109 -367 -109 -391 0 -27 44 -53 89 -53 16 0 71 20 121 44 50 25 113 48
138 51 121 15 181 28 277 60 58 19 113 35 122 35 10 0 40 -23 69 -51 l51 -50
69 52 c38 29 121 96 184 149 63 53 187 155 275 226 88 71 195 159 238 196 44
38 87 68 97 68 13 0 64 66 166 218 186 274 424 616 586 842 93 130 122 176
109 178 -9 1 -160 -15 -336 -37 -384 -48 -505 -58 -505 -43 0 6 38 36 86 67
47 31 90 67 96 80 7 16 43 38 112 70 162 76 223 96 343 110 62 8 126 21 141
29 67 35 92 123 92 326 l0 147 153 12 c83 7 218 20 298 30 l147 16 80 100 c45
54 79 101 77 103 -2 2 -97 -8 -212 -22 -323 -40 -474 -56 -529 -56 l-50 0 -24
51 c-19 42 -30 55 -67 71 -40 18 -46 18 -68 4 -44 -29 -50 -72 -50 -338 1
-186 -2 -249 -11 -252 -14 -5 -131 -21 -231 -31 l-61 -6 -12 53 c-33 155 -42
255 -37 418 5 142 4 162 -8 146 -21 -28 -35 -108 -35 -199 1 -72 6 -126 36
-368 l6 -56 -133 -14 c-74 -7 -136 -13 -138 -13 -15 -3 -61 285 -63 386 0 46
2 124 6 173 6 86 6 89 -9 62 -39 -68 -39 -341 0 -540 8 -44 13 -83 9 -88 -9
-14 -49 -11 -106 10 -29 11 -72 24 -95 30 -24 6 -60 15 -81 21 l-39 10 -13
120 c-8 74 -10 157 -6 216 l7 97 -49 -7 c-53 -7 -162 -42 -312 -101 -86 -34
-108 -38 -235 -46 -77 -5 -162 -14 -190 -19 -132 -29 -325 -22 -325 11 0 28
405 175 632 230 54 13 98 27 98 31 0 10 -121 81 -785 463 -1036 597 -1367 791
-1377 809 -5 9 -8 21 -6 27 4 13 187 -77 388 -193 91 -52 253 -144 360 -203
107 -60 332 -186 500 -280 542 -306 924 -518 986 -547 65 -30 164 -49 164 -30
0 14 -51 56 -103 86 -23 13 -181 101 -352 196 -170 96 -429 243 -575 328 -146
85 -409 236 -585 335 -176 99 -527 298 -780 442 -253 144 -584 332 -735 418
-348 196 -531 300 -695 396 -178 104 -301 164 -365 179 -84 20 -197 23 -280 8z" fill="#ff0000" class="color000 svgShape"></path><path stroke="#ffffff" d="M5848 12309 c-245 -58 -674 -475 -1324 -1289 -583 -730 -1092 -1449
-1822 -2575 -117 -181 -226 -343 -240 -358 -38 -40 -64 -52 -183 -82 -386 -97
-1015 -304 -1472 -485 -234 -93 -314 -136 -382 -204 -97 -98 -130 -218 -102
-383 18 -114 42 -175 88 -227 93 -107 247 -112 499 -19 52 20 185 77 295 128
255 118 373 168 469 199 98 32 146 41 146 28 0 -41 -122 -280 -345 -682 -78
-140 -193 -356 -255 -479 -119 -238 -486 -1039 -551 -1203 -153 -384 -137
-626 52 -809 111 -107 255 -164 398 -157 191 10 272 101 361 405 59 200 83
265 172 483 240 584 591 1356 888 1955 265 534 441 835 530 906 23 18 85 43
180 73 349 107 1077 282 1097 263 3 -4 -29 -150 -71 -324 -180 -746 -242
-1173 -216 -1493 31 -388 172 -570 440 -570 216 0 344 84 399 262 24 78 36
156 56 373 32 349 107 888 181 1310 53 301 70 378 116 520 42 126 44 131 83
152 22 12 81 33 130 48 182 53 777 160 850 153 l33 -3 -21 -65 c-12 -36 -98
-216 -191 -400 -234 -460 -261 -516 -321 -665 -158 -387 -235 -695 -235 -940
0 -229 61 -368 192 -441 51 -28 58 -29 178 -28 116 0 131 2 212 33 250 94 502
300 765 626 117 145 218 253 227 244 2 -2 -2 -53 -11 -114 -18 -133 -12 -319
11 -386 20 -54 67 -114 107 -135 85 -44 219 -38 381 16 155 52 234 120 279
240 12 30 36 136 55 235 66 348 114 505 226 733 111 225 283 477 490 717 125
144 212 225 321 297 170 111 308 166 672 267 326 90 398 121 479 212 186 206
7 485 -345 538 -209 32 -359 -46 -678 -355 -89 -86 -165 -154 -168 -151 -3 3
1 30 8 59 7 29 13 89 14 133 0 141 -59 226 -178 256 -107 26 -310 -13 -473
-91 -99 -48 -122 -77 -170 -221 -78 -229 -177 -432 -362 -739 -412 -686 -898
-1263 -1188 -1409 -34 -17 -76 -34 -93 -37 -30 -6 -31 -6 -31 32 0 55 34 188
76 302 76 203 197 434 452 864 255 428 310 529 343 627 22 64 25 168 6 214
-20 46 -85 101 -148 125 -107 39 -167 47 -374 46 -246 0 -377 -14 -875 -95
-311 -50 -424 -67 -480 -71 l-45 -2 3 44 c11 139 100 499 208 840 135 422 267
768 449 1175 244 545 319 777 295 907 -12 63 -16 70 -127 222 -51 70 -121 182
-154 247 -33 65 -73 129 -89 143 -16 13 -52 29 -80 35 -57 12 -61 12 -112 0z
m-530 -1521 c-27 -99 -95 -284 -188 -518 -154 -386 -278 -757 -500 -1493 -39
-127 -73 -234 -77 -238 -5 -3 -82 -20 -173 -37 -91 -17 -299 -56 -463 -88
-164 -31 -300 -54 -303 -51 -13 13 142 285 344 602 366 572 907 1343 1182
1685 93 115 179 210 190 210 5 0 -1 -33 -12 -72z" fill="#ff0000" class="color000 svgShape"></path><path stroke="#ffffff" d="M4840 9991c-6-12-7-21-1-21 10 0 24 30 17 37-2 3-9-5-16-16zM4718 9817l-27-42 36-13c41-14 46-11 62 37 17 51 14 61-16 61-22 0-34-10-55-43zM4506 9511l-127-186 38-7c51-9 195-10 209 0 13 8 119 340 111 348-3 3-27 11-54 18l-49 13-128-186zM4301 8928c-46-71-82-130-80-133 2-2 25 1 50 6l45 10 36 121c21 67 36 123 35 124-1 0-40-57-86-128zM14988 12301c-133-43-300-171-553-425-379-379-811-910-1381-1696-373-514-928-1329-1247-1832-76-119-155-232-176-251-45-40-77-53-278-106-389-104-1358-447-1568-554-108-56-203-150-234-231-60-161-15-438 86-526 109-96 283-72 653 90 85 37 266 117 403 179 136 61 258 113 272 117 23 6 24 4 16-23-30-98-114-269-318-640-288-526-778-1556-868-1827-108-321-78-536 96-700 161-153 394-209 538-130 103 56 158 154 240 430 57 192 136 397 299 774 405 937 871 1905 1105 2293 107 176 145 221 225 261 122 61 455 159 797 236 204 45 396 80 408 73 10-6 7-22-74-391-173-787-223-1182-189-1500 28-251 110-412 247-479 46-22 74-28 149-31 167-8 311 43 374 129 62 86 78 163 115 539 70 708 220 1658 297 1870 19 54 29 68 63 87 66 38 211 79 375 108 297 50 392 81 469 151 24 21 51 55 62 77 27 51 42 149 34 215-6 48-9 54-46 72-104 54-260 67-544 46-115-8-211-13-214-11-8 9 31 221 71 380 50 205 117 430 217 725 127 378 187 530 381 970 214 485 292 704 293 825 0 89-7 105-136 296-57 86-126 197-152 247-86 168-163 209-307 163zm-885-2597l-398-1139-55-28c-31-15-107-40-171-56-192-49-670-123-686-107-35 35 559 957 1116 1731 283 394 580 772 588 748 2-5-176-522-394-1149z" fill="#ff0000" class="color000 svgShape"></path><path stroke="#ffffff" d="M13986 9949c-31-45-56-82-54-84 2-1 17-1 33 2 27 4 33 12 57 81 15 42 26 77 25 79-2 1-29-34-61-78zM13607 9402c-80-110-469-704-464-708 3-2 242 24 361 39l98 12 94 269c87 250 93 272 84 308-14 50-60 102-104 115-35 11-36 10-69-35zM3825 12119c-152-11-327-35-410-57-110-28-119 13 148-687 274-719 260-690 352-730 96-43 80-51 205 112 148 192 388 493 529 662 61 74 110 137 109 141-3 8-382 321-498 411-41 33-97 77-125 99-78 62-95 65-310 49zM15730 11705c0-44 4-45 189-45 400 0 894-41 1176-96 75-15 142-40 133-50-3-2-148 3-324 12-313 16-893 13-1093-4l-73-7-23-90c-13-49-22-91-20-93 2-2 97 1 212 7 496 25 1235 21 1638-9 83-6 177-10 210-8l60 3-65 22c-38 13-95 45-135 76-294 221-715 299-1602 297-232-1-283-4-283-15zM3230 11269c-50-72-90-132-88-134 4-4 67-33 250-116l108-48-13 32c-8 18-45 114-83 214-38 101-72 183-76 183-4 0-48-59-98-131zM18004 11185c-3-8-31-27-62-42-55-27-62-28-217-28-88 0-288 6-445 14-211 10-430 12-845 7-308-4-583-9-610-12l-51-6-65-156c-36-86-65-157-65-158 1 0 125 9 276 22 399 32 632 44 999 50 357 6 552 22 694 58 161 41 341 146 385 225 13 22 21 41 17 41-3 0-8-7-11-15z" fill="#ff0000" class="color000 svgShape"></path><path stroke="#ffffff" d="M18170 11048c-90-155-359-297-660-349-130-22-418-39-685-39-268 0-783-32-1278-78l-179-17-57-135c-82-190-173-431-167-437 8-8 395 41 736 93 807 124 1434 293 1840 496 289 145 500 343 500 469 0 60-13 60-50-3zM2120 11076c0-19 275-197 765-493 309-187 665-411 665-418 0-2-26-9-57-15-109-23-212-60-228-83-40-58 5-127 109-166 96-36 90-38 178 84 44 61 151 209 239 330 87 121 158 225 157 230-1 6-113 58-248 116-135 59-317 139-405 179-300 135-430 189-519 215-85 24-98 25-372 25-156 0-284-2-284-4zM7330 10759c-166-12-444-44-765-90-154-21-292-39-307-39-27 0-38-12-58-65-10-25-9-26 23-20 252 42 594 91 805 115 392 45 582 74 582 90 0 22-69 24-280 9zM19061 10710c-150-32-282-100-382-200-244-241-229-591 30-691 45-18 78-22 161-22 379-1 678 276 658 609-8 138-72 236-186 286-54 23-207 33-281 18z" fill="#ff0000" class="color000 svgShape"></path><path stroke="#ffffff" d="M2662 10348c-333-621-609-1296-798-1952-30-104-52-191-50-193 2-2 88 21 192 51 104 29 203 57 219 60 26 6 49 36 169 224 194 301 560 855 694 1050l112 162-58 58c-47 46-63 70-80 121-12 36-22 77-22 91 0 33 32 129 55 163l16 25-184 111c-102 61-191 113-200 116-11 5-28-19-65-87zM8950 10373c-92-9-551-53-559-53-5 0 4-39 20-87 16-49 32-115 36-149l6-61 46 8c25 3 124 15 219 25 139 15 172 21 172 34 1 61 79 143 165 173l35 12-30 53c-32 55-29 54-110 45zM7730 10348c-81-11-192-48-296-99-212-104-328-272-328-479-1-71 4-94 25-141 66-140 209-210 402-196 164 11 316 80 425 191 116 117 173 247 173 392 0 157-65 267-186 312-64 25-134 31-215 20zM6670 10084c-80-13-233-38-341-55l-196-31-11-34c-9-31-8-35 11-39 28-6 381-33 545-42 119-6 122-6 122 15 0 11 15 63 33 116l34 96-26-1c-14-1-91-12-171-25zM5846 9633c-32-98-33-109-18-115 57-25 863-128 1272-163l75-6-35 28c-83 65-140 144-167 229l-16 51-156 7c-234 11-841 59-898 71-20 5-25-4-57-102zM20780 9690c-295-73-651-323-1099-771-218-219-538-592-874-1023-298-381-363-460-458-560-154-161-298-262-403-281l-39-8 5 59c18 195 169 488 591 1151 303 476 374 602 403 715 44 172-59 308-266 349-91 18-249 7-331-23-180-66-236-130-332-378-59-153-71-176-308-590-520-912-719-1398-719-1760 0-129 16-206 57-283 111-204 341-243 630-107 244 114 438 280 795 680 189 212 226 249 232 229 2-8 7-44 10-81 20-217 120-418 253-510 81-55 144-71 283-72 144 0 241 21 363 77 133 62 211 121 473 359 100 92 210 168 240 168 5 0 20-29 32-65 48-132 143-244 250-293 167-76 425-13 702 173 398 267 839 768 1037 1180 54 114 41 190-41 229-47 22-78 20-135-9-74-37-166-137-349-380-183-241-284-349-357-385-89-43-177-23-217 50-16 29-19 50-15 115 6 134 64 252 320 660 234 372 327 570 327 697 0 66-61 121-215 193-192 90-207 101-260 209-84 168-165 249-284 286-80 25-199 25-301 0zm197-660l26-41-16-76c-26-117-141-347-355-708-117-196-189-304-305-459-284-377-545-616-672-616-49 0-93 33-101 76-41 217 376 968 811 1464 229 260 416 396 547 399 33 1 41-4 65-39zM5787 9446c-3-8-3-17 0-20 9-8 64-6 87 3 18 7 16 9-14 19-44 16-67 15-73-2zM6000 9260c-8-5-37-17-65-26-27-9-51-18-53-19-2-2-12-35-22-74-14-56-15-71-5-71 7 0 109 16 227 34 117 19 278 42 358 51 80 9 165 20 190 24 39 8 41 9 13 10-26 1-428 53-593 77-19 2-42 0-50-6zM7342 9107c131-56 216-123 280-221 49-75 88-198 89-279l1-62 58 120c32 66 75 170 96 230 20 61 47 133 60 162l22 51-291 5c-161 3-310 8-332 12-38 6-38 5 17-18zM16598 9031c-192-42-375-123-537-239-410-291-700-846-660-1259 16-162 68-276 226-496 136-190 183-292 183-398 0-47-1-49-46-75-161-95-326-99-494-14-83 42-184 117-290 215-114 105-144 125-189 125-46 0-101-57-169-176-173-303-173-531-1-703 155-154 427-238 742-229 547 17 1051 323 1226 743 64 154 84 252 85 425 1 137-2 163-22 224-44 132-91 205-246 385-126 147-168 208-203 298-24 60-27 81-27 183 1 92 5 127 22 174 65 177 197 284 363 294 122 7 176-14 263-101 39-40 93-99 120-131 85-101 132-116 222-71 113 57 217 181 255 307 28 92 23 202-11 274-48 99-173 187-335 235-103 31-356 36-477 10zM10010 8233c-52-19-183-59-290-88-406-112-538-180-720-372-209-221-395-482-515-726-106-213-130-293-205-692-73-386-212-564-529-676-196-69-357-87-486-54-127 32-268 124-328 214l-16 24-66-59c-231-206-452-337-690-410-79-24-107-28-220-28-116 0-138 3-204 27-163 59-282 152-356 278-36 61-105 248-105 283 0 10-4 14-10 11-5-3-10-23-10-43 0-151-73-408-148-523-85-130-186-205-347-259-179-59-316-62-480-9-246 78-387 230-480 515-54 164-68 291-62 549 3 121 13 270 21 330 34 241 90 534 146 761l27 111-171-44c-335-86-500-136-521-159-64-69-322-548-536-993-428-895-821-1802-911-2106-27-93-67-213-89-266l-39-96 25-113c14-62 26-115 28-116 1-1 1730 154 3842 345l3840 346 12 120c25 235 104 451 387 1064 98 210 406 839 471 959 30 57 55 105 55 107 0 2-39-12-86-31-86-34-209-72-296-93-26-6-87-11-136-11-193 0-366 89-466 238-100 152-158 392-136 567 35 276 182 471 459 610 135 68 706 279 1159 430 112 37 201 69 198 72-2 3-33-4-68-16-87-28-186-51-228-51-19 0-64-14-100-31-93-44-167-69-210-69-98 0-237 80-278 160-12 25-26 46-30 46-4 1-50-14-102-33z" fill="#ff0000" class="color000 svgShape"></path><path stroke="#ffffff" d="M16492 8194c-35-42-42-71-42-166 0-106 11-125 177-316 93-108 169-214 213-297 16-30 31-52 33-47 3 4 31 66 62 137 32 72 89 192 126 268 65 129 68 137 45 131-36-9-180 42-246 86-53 36-80 63-183 184-48 55-49 56-102 56-49 0-56-3-83-36zM15015 7855c-66-13-161-31-212-40-51-9-96-22-102-28-11-14-58-253-95-482-15-88-29-174-31-192l-6-31 68 34c37 18 90 39 116 46 45 12 55 10 129-15 96-33 142-63 263-172 168-151 233-195 302-205 23-4 43-4 43-1 0 3-19 31-42 61-73 96-174 252-210 325-105 210-142 440-103 642 8 43 15 79 15 81 0 3 5 4-135-23zM5665 7801l-119-27-24-74c-43-135-91-344-121-521-36-209-74-506-67-522 2-7 5-4 5 7 2 41 143 442 216 611 42 99 119 262 171 361 52 100 94 185 94 188 0 10-29 6-155-23z" fill="#ff0000" class="color000 svgShape"></path><path stroke="#ffffff" d="M12915 7376c-194-49-320-86-419-123-64-24-70-29-112-94-183-282-601-1130-985-1996-141-317-352-814-347-818 2-1 2269 204 5040 454l5036 455 8 146c8 170-1 667-17 890-6 85-12 156-13 157-1 2-41-10-89-26-214-73-313-77-482-20-116 38-220 104-292 182l-48 53-109-98c-187-168-350-266-551-331-163-52-209-61-330-61-100 0-120 3-220 37-191 64-310 151-406 297l-53 81-125-129c-162-167-278-265-424-363-176-118-298-173-492-224-135-35-201-33-333 10-175 57-295 154-381 309l-37 66-44-63c-101-145-202-239-385-360-193-127-419-216-725-284-55-13-124-17-260-17-160-1-198 2-285 23-249 59-446 151-576 268l-37 34-12-73c-15-97-55-229-92-302-87-172-208-267-424-332-76-23-109-27-219-28-123-1-135 1-228 33-251 85-395 253-482 561-39 138-49 232-49 440 1 203 17 370 59 630 23 138 88 467 119 599 10 45 11 61 3 60-7 0-88-20-182-43zM16202 4596c-2866-260-5216-476-5221-482-4-5-27-67-51-139-106-323-227-467-459-547-158-54-286-47-476 24-231 88-402 243-504 457l-36 77-3980-360c-2189-197-3981-359-3982-360-1-1 36-683 81-1516l82-1515 44 2c41 1 19923 1795 19927 1797 1 1-35 683-80 1516l-82 1515-25 2c-14 1-2371-211-5238-471zm4561-345c76-13 77-14 63-179-8-82-18-148-25-155-8-8-95-15-269-23-279-12-306-17-330-68-24-50-6-69 125-132 65-31 160-76 210-101 159-77 232-168 254-318 25-166-28-323-146-433-118-111-280-172-505-193-172-15-401 6-419 40-13 23 11 297 26 312 8 8 81 13 235 15 141 3 239 9 267 17 48 14 77 45 87 93 9 49-30 81-231 189-185 99-235 137-285 215-47 74-63 147-58 269 3 96 6 113 36 173 71 145 218 234 451 273 85 14 438 18 514 6zm-1173-105c9-12 9-46 0-153-7-76-16-146-21-155-11-21-27-24-264-44-232-19-260-26-279-63-17-32-34-211-20-211 5 0 121 9 257 21 225 20 250 20 264 6 14-14 14-30 3-149-7-73-16-141-21-150-12-21-23-23-303-48-126-11-231-22-234-24-3-3-9-51-14-107-11-113-4-144 34-150 13-3 126 4 251 15 199 17 229 18 242 5 13-13 13-33 1-158-9-95-18-147-28-157-30-30-350-78-518-77-172 0-279 43-350 140-72 98-75 158-31 665 32 370 45 447 87 531 90 176 219 239 554 271 19 1 112 4 206 4 139 2 174-1 184-12zm-1598-141c94-20 149-46 206-99 82-76 122-191 122-345 0-77-75-998-85-1037-7-30-21-34-180-50-180-17-231-18-238-1-3 7 12 220 34 473 21 252 39 495 39 539 0 124-34 165-138 165-49 0-230-25-238-32-2-3-26-268-54-589-47-556-50-585-71-601-12-10-33-18-48-18-14 0-93-7-175-14-82-8-155-12-162-9-9 3-14 21-14 47 0 51 107 1327 116 1376 15 89 48 111 223 146 304 61 529 78 663 49zm-1159-98c16-11 13-59-47-766-57-663-67-756-83-771-14-14-56-21-197-33-99-8-186-13-193-10-8 3-13 22-13 47 0 23 27 357 60 742 33 384 60 706 60 715 0 8 6 24 14 34 12 17 39 22 193 36 98 9 181 17 184 18 3 0 13-5 22-12zm-1068-93c11-12 14-28 10-62-13-108-85-992-85-1042 0-31 5-61 12-68 15-15 88-15 267 3 180 17 186 15 178-63-4-32-9-95-13-142-4-47-11-93-15-102-23-44-382-97-529-79-207 26-319 139-328 331-7 158 88 1192 111 1201 1 0 83 9 182 19 99 10 183 18 187 19 4 0 14-6 23-15zm-1012-100c156-40 253-125 291-254 21-69 21-227 1-305-33-131-126-260-232-322-34-20-41-28-34-41 47-88 241-528 241-546 0-13-8-27-17-31-27-10-377-40-394-33-9 3-67 122-130 263l-114 257-64-6c-35-3-65-7-66-8-1-2-12-120-24-263-19-238-23-262-42-278-12-9-33-17-48-17-14 0-93-7-176-15-105-9-154-10-162-3-7 6-13 29-13 52 0 22 27 347 59 721 44 518 62 687 74 711 22 43 66 61 212 90 273 53 503 63 638 28zm-1140-97c16-11 13-59-47-766-57-663-67-756-83-771-14-14-56-21-197-33-99-8-186-13-193-10-8 3-13 22-13 47 0 23 27 357 60 742 33 384 60 706 60 715 0 8 6 24 14 34 12 17 39 22 193 36 98 9 181 17 184 18 3 0 13-5 22-12zm-1013-78c186-29 294-143 307-322 3-44-13-277-41-599-25-290-46-539-46-553 0-51-23-60-196-74-87-7-168-15-179-17-11-3-28 1-38 8-17 12-16 24 3 251 12 132 20 240 18 241-6 5-357-29-363-35-3-4-15-112-26-240-16-190-23-237-37-250-13-13-59-20-196-32-99-8-186-13-193-10-8 3-13 22-13 47 0 89 91 1105 105 1176 33 160 108 267 229 325 88 41 180 61 361 79 178 17 225 18 305 5zm-2035-195c11-12 14-28 10-62-13-108-85-992-85-1042 0-31 5-61 12-68 15-15 88-15 267 3 180 17 186 15 178-63-4-32-9-95-13-142-4-47-11-93-15-102-23-44-382-97-529-79-207 26-319 139-328 331-7 158 88 1192 111 1201 1 0 83 9 182 19 99 10 183 18 187 19 4 0 14-6 23-15zm-1005-75c186-29 294-143 307-322 3-44-13-277-41-599-25-290-46-539-46-553 0-51-23-60-196-74-87-7-168-15-179-17-11-3-28 1-38 8-17 12-16 24 3 251 12 132 20 240 18 241-6 5-357-29-363-35-3-4-15-112-26-240-16-190-23-237-37-250-13-13-59-20-196-32-99-8-186-13-193-10-8 3-13 22-13 47 0 89 91 1105 105 1176 33 160 108 267 229 325 88 41 180 61 361 79 178 17 225 18 305 5zm-1151-113c18-22-103-1407-127-1456-33-68-68-81-327-125-290-49-428-54-561-19-156 40-261 148-293 302-18 88-13 218 29 708 30 340 45 473 55 483 9 9 63 18 152 27 194 19 242 18 250-3 4-10-13-245-36-524-26-299-40-520-36-540 21-95 54-114 188-106 51 3 115 11 142 17l50 11 49 577c27 317 53 587 57 599 10 28 19 30 199 47 194 18 196 18 209 2zm-1420-130c17-20-7-292-28-318-13-15-43-21-176-34-87-8-160-16-161-17-1-1-25-267-53-591-37-438-54-593-64-603-20-20-382-52-399-35-9 9 0 148 39 599 27 324 49 589 47 591-1 2-73-3-161-11-133-12-160-12-173-1-21 20 2 301 28 326 14 13 105 24 512 61 569 51 574 52 589 33zm-1576-152c156-40 253-125 291-254 21-69 21-227 1-305-33-131-126-260-232-322-34-20-41-28-34-41 47-88 241-528 241-546 0-13-8-27-17-31-27-10-377-40-394-33-9 3-67 122-130 263l-114 257-64-6c-35-3-65-7-66-8-1-2-12-120-24-263-19-238-23-262-42-278-12-9-33-17-48-17-14 0-93-7-176-15-105-9-154-10-162-3-7 6-13 29-13 52 0 22 27 347 59 721 44 518 62 687 74 711 22 43 66 61 212 90 273 53 503 63 638 28zm-1140-87c16-11 13-59-47-766-57-663-67-756-83-771-14-14-56-21-197-33-99-8-186-13-193-10-8 3-13 22-13 47 0 23 27 357 60 742 33 384 60 706 60 715 0 8 6 24 14 34 12 17 39 22 193 36 98 9 181 17 184 18 3 0 13-5 22-12zm-610-59c7-22-397-1381-426-1430-35-60-98-115-164-144-130-58-369-70-467-24-57 28-100 81-115 148-19 79-181 1310-175 1326 3 9 13 17 22 20 35 10 363 37 382 31 12-4 21-18 24-38 7-39 116-1117 116-1140 0-25 29-21 39 6 5 12 79 285 166 607 95 355 163 592 173 602 13 13 52 21 162 31 193 19 257 20 263 5z" fill="#ff0000" class="color000 svgShape"></path><path stroke="#ffffff" d="M14353 3361c-28-4-54-9-57-12-4-3-11-55-16-115-5-60-12-132-15-159l-6-51 97 8c115 9 160 20 204 51 46 30 70 75 77 141 7 67-9 111-48 131-29 16-136 18-236 6zM12262 3159c-98-9-127-25-141-76-12-45-34-274-27-281 7-6 355 24 362 31 7 7 23 178 24 249 0 92-14 97-218 77zM9222 2889c-98-9-127-25-141-76-12-45-34-274-27-281 7-6 355 24 362 31 7 7 23 178 24 249 0 92-14 97-218 77zM5013 2521c-28-4-54-9-57-12-4-3-11-55-16-115-5-60-12-132-15-159l-6-51 97 8c115 9 160 20 204 51 46 30 70 75 77 141 7 67-9 111-48 131-29 16-136 18-236 6z" fill="#ff0000" class="color000 svgShape"></path></g></svg></g></svg>